<?xml version="1.0" encoding="UTF-8" standalone="no"?>
<!DOCTYPE svg PUBLIC "-//W3C//DTD SVG 1.1//EN" "http://www.w3.org/Graphics/SVG/1.1/DTD/svg11.dtd">
<svg width="100%" height="100%" viewBox="0 0 121 122" version="1.1" xmlns="http://www.w3.org/2000/svg" xmlns:xlink="http://www.w3.org/1999/xlink" xml:space="preserve" xmlns:serif="http://www.serif.com/" style="fill-rule:evenodd;clip-rule:evenodd;stroke-linejoin:round;stroke-miterlimit:2;">
    <g transform="matrix(1,0,0,1,-13,-10)">
        <g id="Image">
            <path id="path1" d="M45,48C53.736,44.682 69.89,43.279 68.409,57.98C67.888,63.15 63.078,66.484 61,71C53.784,70.874 44.398,70.191 49,61L28.991,72.883L13,72C15.617,89.113 35.437,97.753 51,99C48.774,94.643 46.421,90.083 47.674,85.041C50.074,75.38 61.021,73.811 67.587,80.041C73.463,85.617 73.087,102.519 64,94L63,94L75.094,115.009L74,132C90.747,127.533 100.073,110.619 101,94C96.627,95.949 91.927,98.363 87.041,96.818C76.398,93.452 76.667,81.482 83.851,75C89.071,70.289 104.142,71.636 97,80L97,81C106.609,80.277 109.074,72.747 117.07,69.317C122.641,66.928 128.614,69.249 134,71C131.449,53.194 112.084,44.766 96,43C98,47.365 100.537,52.055 99.094,56.989C95.992,67.593 84.495,68.174 77.804,61.053C72.244,55.136 74.247,39.18 83,48L84,48L70.962,25.98L73,10C55.028,14.285 48.269,31.536 45,48Z" style="fill:rgb(7,7,7);fill-rule:nonzero;"/>
        </g>
    </g>
</svg>
