<?xml version="1.0" encoding="UTF-8" standalone="no"?>
<!DOCTYPE svg PUBLIC "-//W3C//DTD SVG 1.1//EN" "http://www.w3.org/Graphics/SVG/1.1/DTD/svg11.dtd">
<svg width="100%" height="100%" viewBox="0 0 134 132" version="1.1" xmlns="http://www.w3.org/2000/svg" xmlns:xlink="http://www.w3.org/1999/xlink" xml:space="preserve" xmlns:serif="http://www.serif.com/" style="fill-rule:evenodd;clip-rule:evenodd;stroke-linejoin:round;stroke-miterlimit:2;">
    <g transform="matrix(1,0,0,1,-14,-12)">
        <g id="Image">
            <path id="path1" d="M102,12L95.991,31.985L81,51C70.045,48.769 74.764,37.689 70.583,30C67.062,23.526 60.414,19.58 57,13L56,13C57.052,20.649 63.043,25.699 64.427,33C65.333,37.776 62.506,42.281 62.213,47C62.026,50.007 64.666,55.875 61.592,57.953C58.603,59.972 55.25,56.947 53.285,54.945C43.316,44.784 33.77,48.493 22,43C25.517,49.763 33.259,48.737 38.981,52.702C43.736,55.997 44.881,61.443 48.105,65.907C49.779,68.224 55.701,71.52 54.654,74.826C53.698,77.846 49.605,78.317 47,78.091C33.015,76.88 27.958,83.061 16,89L16,90C23.058,89.677 29.031,84.85 36,84.933C40.723,84.989 44.51,88.256 49,89.316C51.868,89.994 59.264,88.498 60.248,92.188C61.658,97.473 53.162,100.899 50.105,103.529C42.936,109.695 42.717,121.082 38,129C45.402,125.125 46.294,117.508 52.105,112.228C56.096,108.602 61.428,108.973 65.996,106.558C69.016,104.961 73.857,98.163 76.821,103.167C80.346,109.118 73.57,118.732 75.916,126C77.992,132.433 81.835,136.983 82,144L83,144C84.408,136.413 80.674,129.251 82.113,122C83.02,117.433 86.83,114.193 88.633,110C89.831,107.214 89.149,99.569 93.144,99.176C99.368,98.563 101.409,109.139 104.108,112.907C108.895,119.59 119.27,122.458 126,127C123.063,119.519 115.908,117.296 111.739,110.961C108.87,106.603 109.969,100.817 108.362,96C107.299,92.813 101.744,86.851 107.128,84.785C113.353,82.397 121.675,90.664 129,89.696C135.748,88.804 141.073,85.409 148,87L148,86L127,82.991L105,71C107.207,60.094 117.914,63.477 124.907,57.606C130.53,52.884 132.291,45.564 139,42L139,41C131.139,41.875 127.644,48.542 121,51.822C116.245,54.169 111.001,51.588 106,52.471C102.981,53.005 96.384,57.069 94.623,52.809C92.448,47.55 100.174,41.61 101.867,37C104.149,30.782 103.518,18.319 102,12M79,61.344C96.852,58.588 102.123,86.957 84,89.786C64.849,92.776 59.828,64.304 79,61.344M14,88L15,89L14,88Z" style="fill:rgb(9,9,9);fill-rule:nonzero;"/>
        </g>
    </g>
</svg>
