<?xml version="1.0" encoding="UTF-8" standalone="no"?>
<!DOCTYPE svg PUBLIC "-//W3C//DTD SVG 1.1//EN" "http://www.w3.org/Graphics/SVG/1.1/DTD/svg11.dtd">
<svg width="100%" height="100%" viewBox="0 0 125 123" version="1.1" xmlns="http://www.w3.org/2000/svg" xmlns:xlink="http://www.w3.org/1999/xlink" xml:space="preserve" xmlns:serif="http://www.serif.com/" style="fill-rule:evenodd;clip-rule:evenodd;stroke-linejoin:round;stroke-miterlimit:2;">
    <g transform="matrix(1,0,0,1,-13.2809,-27.8087)">
        <g id="Image">
            <path id="path1" d="M83,105L85,113L86,113C90.038,101.542 98.319,114.302 98.772,121C100.335,144.141 68.965,145.575 56.001,135.331C50.429,130.928 41.408,120.412 54,120C49.529,111.458 31.604,104.854 29.384,119.001C27.807,129.054 38.461,136.545 46,140.688C62.638,149.832 94.496,158.579 107.441,138.961C119.042,121.379 102.944,109.097 95.893,95C94.118,91.452 95.755,86.862 94.967,83C93.425,75.449 89.318,73.314 94,66C80.1,66.209 90.43,51.416 98,48.854C115.439,42.953 131.053,63.163 128.561,79C127.468,85.944 123.862,99.42 116,90C106.914,101.425 120.961,120.867 132.442,107.786C136.585,103.066 136.648,96.855 137.424,91C140.097,70.833 129.184,33.567 104,34.054C91.942,34.287 82.486,43.441 77.876,54C76.268,57.682 76.005,63.47 73.262,66.437C66.909,73.306 59.014,72.708 57,84L49,82C55.714,94.463 38.357,93.015 32.185,86.867C19.265,73.995 27.086,53.307 42,46.323C50.252,42.459 63.33,38.897 59,52C69.312,49.993 85.966,34.323 67.999,28.653C55.843,24.817 41.668,34.878 33,42.3C17.295,55.747 0.355,88.023 28,99.522C39.179,104.171 48.529,98.074 59,99.913C68.27,101.541 72.441,108.121 83,105Z" style="fill:rgb(6,6,6);fill-rule:nonzero;"/>
        </g>
    </g>
</svg>
